<svg viewBox="0 0 100 100" xmlns="http://www.w3.org/2000/svg" fill="none">
  <defs>
    <linearGradient id="do-g" x1="0" y1="0" x2="1" y2="1">
      <stop offset="0%" stop-color="#8b5cf6"/>
      <stop offset="100%" stop-color="#6366f1"/>
    </linearGradient>
    <radialGradient id="do-hl" cx="35%" cy="28%" r="40%">
      <stop offset="0%" stop-color="#fff" stop-opacity=".5"/>
      <stop offset="100%" stop-color="#fff" stop-opacity="0"/>
    </radialGradient>
  </defs>
  <circle cx="50" cy="50" r="44" fill="url(#do-g)"/>
  <circle cx="50" cy="50" r="44" fill="url(#do-hl)"/>
  <!-- Row 1 -->
  <rect x="20" y="24" width="60" height="14" rx="5" fill="#fff" opacity=".2"/>
  <circle cx="30" cy="31" r="5" fill="#fff" opacity=".9"/>
  <text x="30" y="34.5" text-anchor="middle" font-family="system-ui,sans-serif" font-size="8" font-weight="800" fill="url(#do-g)">1</text>
  <rect x="40" y="28" width="28" height="5" rx="2.5" fill="#fff" opacity=".5"/>
  <!-- Row 2 -->
  <rect x="20" y="43" width="60" height="14" rx="5" fill="#fff" opacity=".2"/>
  <circle cx="30" cy="50" r="5" fill="#fff" opacity=".9"/>
  <text x="30" y="53.5" text-anchor="middle" font-family="system-ui,sans-serif" font-size="8" font-weight="800" fill="url(#do-g)">2</text>
  <rect x="40" y="47" width="32" height="5" rx="2.5" fill="#fff" opacity=".5"/>
  <!-- Row 3 -->
  <rect x="20" y="62" width="60" height="14" rx="5" fill="#fff" opacity=".2"/>
  <circle cx="30" cy="69" r="5" fill="#fff" opacity=".9"/>
  <text x="30" y="72.5" text-anchor="middle" font-family="system-ui,sans-serif" font-size="8" font-weight="800" fill="url(#do-g)">3</text>
  <rect x="40" y="66" width="24" height="5" rx="2.5" fill="#fff" opacity=".5"/>
  <!-- Arrows -->
  <path d="M50 39l-3 3h6z" fill="#fff" opacity=".5"/>
  <path d="M50 58l-3 3h6z" fill="#fff" opacity=".5"/>
</svg>
